<?xml version="1.0" standalone="no"?>
<!DOCTYPE svg PUBLIC "-//W3C//DTD SVG 20010904//EN"
 "http://www.w3.org/TR/2001/REC-SVG-20010904/DTD/svg10.dtd">
<svg version="1.0" xmlns="http://www.w3.org/2000/svg"
 width="204.000000pt" height="204.000000pt" viewBox="0 0 204.000000 204.000000"
 preserveAspectRatio="xMidYMid meet">
<metadata>
Created by potrace 1.16, written by Peter Selinger 2001-2019
</metadata>
<g transform="translate(0.000000,204.000000) scale(0.100000,-0.100000)"
fill="#000000" stroke="none">
<path d="M1 1598 c1 -244 3 -432 6 -418 32 207 143 420 299 572 148 144 343
245 538 277 32 6 -112 9 -396 10 l-448 1 1 -442z"/>
<path d="M1196 2029 c195 -32 390 -133 538 -277 156 -152 267 -365 299 -572 3
-14 5 174 6 418 l1 442 -447 -1 c-285 -1 -429 -4 -397 -10z"/>
<path d="M642 1773 c-25 -10 -42 -62 -42 -128 l0 -65 -81 0 c-76 0 -82 -2
-110 -29 l-29 -29 0 -255 0 -254 -35 -44 c-42 -54 -65 -117 -65 -175 0 -49 16
-98 29 -90 5 3 8 -2 7 -11 0 -9 13 -26 31 -37 l32 -21 1 -98 c0 -95 1 -99 29
-128 23 -23 39 -29 70 -29 36 0 41 -3 41 -23 0 -32 30 -57 67 -57 32 0 56 21
67 58 l7 22 260 0 c242 0 259 -1 259 -18 0 -10 7 -28 16 -40 31 -44 114 -19
114 35 0 16 8 21 41 26 23 3 51 15 63 27 20 20 21 30 24 385 2 321 1 365 -13
365 -13 0 -15 -42 -17 -327 l-3 -328 -82 -3 c-46 -2 -92 2 -103 8 -11 6 -72
78 -135 160 l-116 149 -76 -55 c-42 -30 -83 -52 -90 -50 -8 3 -11 1 -8 -4 3
-6 1 -11 -4 -11 -19 -2 -25 -4 -74 -23 -26 -11 -45 -21 -43 -23 2 -3 25 5 51
16 l46 20 -3 -92 -3 -92 -100 0 -100 0 -3 56 -3 55 38 12 c33 10 34 11 7 7
-46 -6 -76 4 -61 20 9 10 14 9 24 -4 12 -14 12 -14 6 3 -4 13 -2 17 8 14 8 -3
22 -1 33 4 13 7 16 7 12 -1 -12 -19 2 -12 25 12 15 15 23 18 26 10 3 -7 9 -13
15 -13 6 0 7 7 4 16 -5 13 -3 14 7 6 8 -7 18 -7 27 -2 11 7 12 10 2 10 -7 0
-10 5 -7 10 5 8 11 7 21 -1 12 -10 13 -9 8 5 -5 12 -2 15 12 10 15 -5 16 -4 4
5 -8 5 -12 12 -10 13 37 28 63 39 70 28 5 -8 9 -7 13 4 4 9 2 16 -4 16 -6 0
-7 4 -4 10 4 6 17 3 33 -7 l27 -17 -18 21 c-18 20 -17 21 14 32 17 6 35 8 40
5 5 -3 14 -2 21 2 8 5 6 10 -8 16 -14 6 -11 7 9 3 22 -4 27 -3 21 7 -5 9 -2 8
10 -1 17 -14 17 -15 0 -28 -10 -7 -14 -13 -8 -13 11 0 134 109 133 118 -3 22
2 42 12 42 5 0 7 -5 3 -12 -4 -7 -3 -8 4 -4 6 4 8 14 5 22 -4 11 0 15 12 12
10 -2 20 2 22 8 2 7 -6 10 -22 9 -28 -4 -25 9 7 26 12 6 18 7 14 1 -3 -5 1
-12 9 -16 15 -5 31 9 18 17 -5 2 -3 2 4 1 6 -2 13 7 15 19 2 12 6 20 9 17 3
-3 17 6 30 20 13 15 20 19 14 10 -5 -9 11 6 37 34 26 28 47 58 45 66 -1 8 3
14 10 13 7 -2 22 11 34 28 18 26 20 34 9 54 -12 22 -15 20 -134 -100 -299
-302 -655 -512 -836 -492 -61 7 -84 36 -77 100 6 66 27 86 27 27 0 -25 4 -51
9 -58 12 -19 79 -26 129 -13 l42 12 0 293 c0 247 2 296 15 306 10 8 42 11 99
9 102 -5 93 2 237 -184 57 -74 109 -135 116 -135 14 0 87 55 176 133 58 52 67
65 67 94 0 18 -6 42 -12 53 -10 16 -10 24 0 40 6 11 12 46 12 78 0 78 -23 102
-98 102 l-52 0 0 65 c0 69 -17 118 -45 129 -20 7 -414 7 -433 -1z m382 -92
c12 -13 16 -32 14 -58 l-3 -38 -175 0 -174 0 3 50 c1 27 8 53 14 57 7 4 78 8
158 8 131 0 148 -2 163 -19z m295 -498 c-13 -16 -26 -32 -30 -36 -3 -4 -12 0
-19 10 -11 14 -11 15 -1 6 11 -9 19 -5 38 18 14 16 27 29 31 29 3 0 -5 -12
-19 -27z m-224 -243 c-4 -6 -11 -7 -17 -4 -6 4 -8 2 -4 -4 3 -5 -11 -24 -33
-41 l-39 -31 -4 25 c-4 20 -3 23 8 14 11 -9 18 -8 29 1 9 7 13 15 10 18 -3 3
0 11 6 19 13 15 53 18 44 3z m-455 -240 c0 -5 -5 -10 -11 -10 -5 0 -7 5 -4 10
3 6 8 10 11 10 2 0 4 -4 4 -10z m-257 -33 c20 4 20 3 4 -7 -19 -12 -37 -6 -36
13 0 9 2 9 5 1 3 -7 15 -10 27 -7z m65 -30 c2 -11 -3 -17 -15 -17 -15 0 -16 2
-3 10 10 6 11 10 3 10 -7 0 -13 5 -13 11 0 17 25 4 28 -14z m97 -8 c17 -1 16
-2 -5 -9 -28 -9 -63 -12 -42 -3 6 2 12 9 12 14 0 6 -5 7 -12 3 -7 -5 -8 -3 -3
5 5 9 10 10 18 2 6 -6 20 -11 32 -12z"/>
<path d="M1644 1628 l-29 -33 33 29 c30 28 37 36 29 36 -2 0 -16 -15 -33 -32z"/>
<path d="M1285 1619 c-4 -6 -5 -12 -2 -15 2 -3 7 2 10 11 7 17 1 20 -8 4z"/>
<path d="M1370 1556 c0 -3 9 -10 20 -16 11 -6 20 -8 20 -6 0 3 -9 10 -20 16
-11 6 -20 8 -20 6z"/>
<path d="M1669 1523 c-13 -16 -12 -17 4 -4 9 7 17 15 17 17 0 8 -8 3 -21 -13z"/>
<path d="M1420 1526 c0 -3 9 -10 20 -16 11 -6 20 -8 20 -6 0 3 -9 10 -20 16
-11 6 -20 8 -20 6z"/>
<path d="M1514 1378 l-29 -33 33 29 c30 28 37 36 29 36 -2 0 -16 -15 -33 -32z"/>
<path d="M1195 1030 c-27 -31 -58 -61 -67 -66 -14 -8 -7 -21 48 -92 36 -45 70
-80 75 -77 11 7 12 295 2 294 -5 0 -30 -27 -58 -59z"/>
<path d="M770 980 l0 -80 24 10 c36 13 66 33 66 44 0 13 -71 106 -81 106 -5 0
-9 -36 -9 -80z"/>
<path d="M1 443 l-1 -443 448 1 c409 1 441 2 372 14 -298 54 -577 268 -719
552 -38 77 -78 194 -90 265 -6 35 -9 -95 -10 -389z"/>
<path d="M2030 853 c0 -82 -83 -290 -164 -411 -47 -71 -160 -188 -238 -247
-108 -81 -277 -156 -408 -180 -69 -12 -37 -13 373 -14 l447 -1 0 440 c0 242
-2 440 -5 440 -3 0 -5 -12 -5 -27z"/>
</g>
</svg>
